<svg xmlns="http://www.w3.org/2000/svg" width="40" height="40" viewBox="0 0 40 40"><path d="M14 18 C12 15 14 12 18 12 C23 12 25 15 23 19 C21 23 16 23 14 18 Z" fill="#C49A6C" stroke="#1F2937" stroke-width="2" /><path d="M18 22 C16 19 18 16 22 16 C27 16 29 19 27 23 C25 27 20 27 18 22 Z" fill="#B8895F" stroke="#1F2937" stroke-width="2" />
      <ellipse cx="17" cy="15.5" rx="4" ry="2.7" fill="#EED9A6" stroke="#1F2937" stroke-width="1.8"/>
      <ellipse cx="22.5" cy="20.5" rx="4.2" ry="2.8" fill="#E6C99A" stroke="#1F2937" stroke-width="1.8"/>
      <path d="M16.2 14.7 C17.5 15.5 18.8 15.6 20.2 15" fill="none" stroke="#8B5E3C" stroke-width="1.4" stroke-linecap="round"/>
    <path d="M20 24V34" stroke="#6B4F2A" stroke-width="3" stroke-linecap="round" fill="none"/></svg>