<svg xmlns="http://www.w3.org/2000/svg" width="40" height="40" viewBox="0 0 40 40"><path d="M20 20V34" stroke="#8B5E3C" stroke-width="3" stroke-linecap="round" fill="none" />
    <g transform="translate(14 24) rotate(-35)">
      <ellipse cx="0" cy="0" rx="8" ry="4.8" fill="#2E7D32" stroke="#1F2937" stroke-width="2" />
      <path d="M 0 -4.8 L 0 4.8" fill="none" stroke="#166534" stroke-width="1.5" stroke-linecap="round"/>
    </g>
  
    <g transform="translate(26 24) rotate(35)">
      <ellipse cx="0" cy="0" rx="8" ry="4.8" fill="#2E7D32" stroke="#1F2937" stroke-width="2" />
      <path d="M 0 -4.8 L 0 4.8" fill="none" stroke="#166534" stroke-width="1.5" stroke-linecap="round"/>
    </g>
  
  </g>
    <g transform="translate(20 28) rotate(0)">
      <ellipse cx="0" cy="0" rx="4" ry="2.6" fill="#2E7D32" stroke="#1F2937" stroke-width="2" />
      <path d="M 0 -2.6 L 0 2.6" fill="none" stroke="#166534" stroke-width="1.5" stroke-linecap="round"/>
    </g>
  
      <g>
        <circle cx="20" cy="13" r="7.5" fill="#FFFFFF" stroke="#1F2937" stroke-width="2" />
        <circle cx="13.2" cy="21.2" r="6.8" fill="#FFFFFF" stroke="#1F2937" stroke-width="2" opacity="1"/>
        <circle cx="27" cy="21.2" r="6.8" fill="#FFFFFF" stroke="#1F2937" stroke-width="2" />
        <circle cx="20" cy="21.2" r="6.8" fill="#FFFFFF" stroke="#1F2937" stroke-width="2" />
        <path d="M12 21 C12 21 13 34 20 34 C27 34 28 21 28 21 L20 25 L12 21 Z" fill="#795548" stroke="#1F2937" stroke-width="0"/>
      </g>
    </svg>