<svg xmlns="http://www.w3.org/2000/svg" width="40" height="40" viewBox="0 0 40 40">
      <path d="M20 6 C27 6 34 13 34 20 C34 27 27 36 20 36 C13 36 6 27 6 20 C6 13 13 6 20 6 Z"
        fill="#F3D7C1" stroke="#1F2937" stroke-width="2"/>
      <path d="M20 9 C25 9 30 14 30 20 C30 26 25 31 20 31 C15 31 10 26 10 20 C10 14 15 9 20 9 Z"
        fill="#E7C6A8" stroke="#1F2937" stroke-width="2"/>
      <path d="M20 12 C24 12 27 15 27 20 C27 25 24 28 20 28 C16 28 13 25 13 20 C13 15 16 12 20 12 Z"
        fill="#F0D2B8" stroke="#1F2937" stroke-width="2"/>
      <path d="M20 6 L20 3" stroke="#1F2937" stroke-width="2.5" stroke-linecap="round"/>
      <path d="M18 6 L16 4" stroke="#1F2937" stroke-width="1.8" stroke-linecap="round"/>
      <path d="M22 6 L24 4" stroke="#1F2937" stroke-width="1.8" stroke-linecap="round"/>
    </svg>