<svg xmlns="http://www.w3.org/2000/svg" width="40" height="40" viewBox="0 0 40 40"><path d="M20 10V34" stroke="#6B4F2A" stroke-width="3" stroke-linecap="round" fill="none"/><g><path d="M 18 15 c -2 -2 -2 -6 1 -7 c 3 1 4 5 1 7 Z" fill="#EED9A6" stroke="#1F2937" stroke-width="1.8" transform="rotate(-15 18 15)"/><path d="M 20 13.5 c -2 -2 -2 -6 1 -7 c 3 1 4 5 1 7 Z" fill="#EED9A6" stroke="#1F2937" stroke-width="1.8" transform="rotate(0 20 13.5)"/><path d="M 22 15 c -2 -2 -2 -6 1 -7 c 3 1 4 5 1 7 Z" fill="#EED9A6" stroke="#1F2937" stroke-width="1.8" transform="rotate(15 22 15)"/><path d="M 19 18 c -2 -2 -2 -6 1 -7 c 3 1 4 5 1 7 Z" fill="#EED9A6" stroke="#1F2937" stroke-width="1.8" transform="rotate(-10 19 18)"/><path d="M 21 18 c -2 -2 -2 -6 1 -7 c 3 1 4 5 1 7 Z" fill="#EED9A6" stroke="#1F2937" stroke-width="1.8" transform="rotate(10 21 18)"/></g></svg>